<svg id="svg" version="1.1" xmlns="http://www.w3.org/2000/svg" xmlns:xlink="http://www.w3.org/1999/xlink" width="400" height="400.7827788649706" viewBox="0, 0, 400,400.7827788649706"><g id="svgg"><path id="path0" d="M190.200 30.247 C 135.499 34.401,83.840 65.018,56.513 109.480 C 34.400 145.459,26.262 188.026,33.413 230.308 C 47.490 313.538,121.132 372.608,207.000 369.547 C 296.819 366.344,366.490 295.689,369.056 205.200 C 370.053 170.073,357.050 125.095,339.049 101.400 C 308.202 60.795,269.280 37.313,222.277 30.949 C 218.000 30.370,195.162 29.870,190.200 30.247 M214.800 38.179 C 242.059 41.252,270.339 51.106,290.200 64.452 C 340.152 98.017,366.670 154.704,361.003 215.800 C 359.257 234.620,356.192 245.657,347.004 266.200 C 345.529 269.500,343.360 274.503,342.186 277.317 C 331.743 302.342,302.774 330.867,272.400 346.033 C 174.589 394.869,55.885 332.260,40.652 223.800 C 30.926 154.547,64.570 89.117,127.200 55.484 C 152.649 41.818,186.957 35.040,214.800 38.179 M193.824 51.284 C 193.556 52.133,193.175 59.877,193.161 64.773 C 193.140 72.027,195.246 75.137,201.198 76.640 C 209.320 78.691,215.869 74.718,216.637 67.275 C 217.208 61.737,217.497 52.562,217.115 52.100 C 216.585 51.458,210.962 51.414,210.570 52.048 C 210.418 52.295,210.124 55.752,209.918 59.730 C 209.687 64.181,209.328 67.476,208.986 68.296 C 207.821 71.082,203.422 71.530,201.354 69.072 L 200.293 67.812 200.447 59.406 L 200.600 51.000 197.294 50.884 C 194.862 50.798,193.944 50.904,193.824 51.284 M163.062 54.993 C 161.777 55.274,160.496 55.750,160.216 56.052 C 159.622 56.693,154.498 82.232,154.886 82.620 C 155.285 83.018,160.813 81.930,161.407 81.336 C 161.693 81.050,162.042 80.134,162.183 79.300 C 162.586 76.916,162.867 76.727,167.442 75.764 C 171.589 74.891,173.200 74.949,173.200 75.972 C 173.200 76.161,173.709 76.860,174.330 77.525 L 175.460 78.735 178.630 78.056 C 181.064 77.535,181.789 77.226,181.751 76.726 C 181.696 76.006,167.843 55.699,166.861 54.900 C 166.149 54.320,166.139 54.320,163.062 54.993 M239.614 58.081 C 229.797 61.850,228.670 76.574,237.800 81.781 C 241.478 83.878,247.315 84.190,250.673 82.469 C 253.029 81.261,253.074 81.005,251.366 78.525 C 249.549 75.887,249.376 75.800,247.492 76.587 C 241.321 79.166,236.268 72.550,239.961 66.726 C 242.386 62.902,246.457 62.640,249.720 66.099 L 251.640 68.133 253.735 67.473 C 257.988 66.133,258.130 64.849,254.432 61.194 C 250.576 57.384,244.664 56.142,239.614 58.081 M167.100 66.623 C 168.892 69.336,168.811 69.847,166.513 70.338 C 164.020 70.869,163.862 70.706,164.177 67.921 C 164.654 63.703,165.054 63.526,167.100 66.623 M126.553 67.956 C 118.030 70.151,113.485 79.041,116.971 86.699 C 122.902 99.729,143.000 95.026,143.000 80.608 C 143.000 72.150,134.791 65.835,126.553 67.956 M274.689 71.300 C 268.637 80.811,263.176 90.038,263.392 90.387 C 263.874 91.166,268.075 93.644,268.707 93.521 C 269.050 93.455,270.310 91.825,271.506 89.900 C 274.068 85.776,274.037 85.783,278.100 88.386 C 281.766 90.735,281.759 90.693,279.200 94.724 C 276.703 98.657,276.710 98.862,279.408 100.588 C 282.809 102.763,282.376 103.139,289.211 92.100 C 296.601 80.164,296.354 80.979,293.173 79.016 C 290.181 77.169,290.111 77.196,287.600 81.200 C 285.038 85.285,285.071 85.275,281.486 83.040 C 277.210 80.376,277.296 80.720,279.850 76.460 C 282.341 72.304,282.353 72.423,279.234 70.422 C 276.670 68.776,276.241 68.859,274.689 71.300 M132.852 75.416 C 133.687 75.952,134.663 77.091,135.152 78.100 C 139.196 86.454,127.811 91.775,123.563 83.516 C 120.503 77.566,127.157 71.762,132.852 75.416 M199.795 87.677 C 199.445 88.855,188.815 99.600,187.999 99.600 C 187.662 99.600,185.323 97.530,182.800 95.000 C 178.709 90.897,177.200 89.741,177.200 90.707 C 177.200 90.876,179.192 92.991,181.627 95.407 C 187.773 101.507,187.783 100.339,181.532 106.666 C 174.313 113.973,175.731 113.919,168.947 107.147 C 165.786 103.992,163.200 101.239,163.200 101.030 C 163.200 100.821,164.820 98.998,166.800 96.979 C 169.978 93.738,170.960 92.400,170.159 92.400 C 170.026 92.400,168.206 94.020,166.113 96.000 C 161.747 100.132,161.991 100.046,159.932 98.186 C 157.881 96.333,157.065 96.818,158.964 98.763 C 159.754 99.572,160.400 100.507,160.400 100.842 C 160.400 101.289,153.207 108.799,148.974 112.770 C 148.875 112.864,147.109 111.289,145.050 109.270 C 141.606 105.892,140.400 105.032,140.400 105.954 C 140.400 106.148,142.020 107.940,144.000 109.935 C 145.980 111.930,147.600 113.708,147.600 113.886 C 147.600 114.482,136.199 125.600,135.588 125.600 C 135.257 125.600,133.015 123.623,130.607 121.207 C 127.686 118.277,126.094 116.946,125.827 117.213 C 125.560 117.480,126.921 119.112,129.913 122.113 C 132.381 124.588,134.400 126.792,134.400 127.011 C 134.400 127.231,131.814 129.992,128.653 133.147 C 121.956 139.832,123.055 139.724,117.608 134.227 C 115.522 132.122,113.677 130.400,113.508 130.400 C 112.564 130.400,113.628 131.841,117.200 135.400 C 119.400 137.592,121.200 139.661,121.200 139.998 C 121.200 140.793,110.380 151.600,109.584 151.600 C 109.251 151.600,107.728 150.340,106.200 148.800 C 104.672 147.260,103.282 146.000,103.111 146.000 C 102.230 146.000,103.083 147.302,105.600 149.800 C 107.140 151.328,108.400 152.766,108.400 152.994 C 108.400 154.285,96.787 164.984,95.952 164.463 C 95.406 164.122,94.968 164.072,94.718 164.322 C 94.468 164.572,94.484 164.805,94.765 164.978 C 95.542 165.459,95.226 166.625,94.000 167.800 C 92.861 168.891,92.420 170.000,93.125 170.000 C 93.304 170.000,93.968 169.460,94.600 168.800 C 95.232 168.140,96.129 167.600,96.593 167.600 C 97.429 167.600,108.400 178.228,108.400 179.037 C 108.400 179.545,97.094 190.800,96.583 190.800 C 96.360 190.800,95.017 189.630,93.600 188.200 C 91.321 185.901,90.000 185.045,90.000 185.868 C 90.000 186.015,91.170 187.348,92.600 188.829 C 95.821 192.165,95.831 191.993,92.200 195.600 C 89.508 198.274,88.616 199.600,89.510 199.600 C 89.681 199.600,91.161 198.250,92.800 196.600 C 94.596 194.792,96.109 193.600,96.608 193.600 C 97.430 193.600,108.400 204.241,108.400 205.037 C 108.400 205.550,97.091 216.800,96.576 216.800 C 96.348 216.800,95.450 216.118,94.581 215.285 C 88.942 209.882,87.225 209.636,92.400 214.973 C 95.753 218.431,95.708 217.995,93.000 220.834 C 89.469 224.537,90.155 225.347,93.818 221.800 C 95.067 220.590,96.297 219.600,96.551 219.600 C 97.196 219.600,108.399 230.637,108.405 231.278 C 108.410 231.867,96.986 243.200,96.387 243.200 C 95.129 243.200,96.694 245.242,102.200 250.787 C 109.307 257.945,108.864 257.114,106.781 259.374 C 104.747 261.581,105.414 262.335,107.553 260.246 C 109.637 258.211,109.610 258.198,115.705 264.305 C 122.010 270.622,121.903 270.333,119.000 273.200 C 117.790 274.395,116.800 275.514,116.800 275.686 C 116.800 276.520,118.030 275.794,120.000 273.800 C 122.805 270.960,122.228 270.738,128.751 277.166 C 135.195 283.515,135.055 283.185,132.403 285.798 C 131.071 287.109,130.538 287.898,130.805 288.165 C 131.072 288.432,131.842 287.938,133.116 286.683 C 135.750 284.088,135.847 284.124,141.697 289.900 C 147.782 295.906,147.864 296.025,146.919 297.467 C 146.161 298.624,146.388 298.672,148.496 297.804 C 149.015 297.590,149.899 298.200,151.971 300.200 C 155.825 303.921,156.597 303.352,152.890 299.524 C 150.989 297.561,150.060 296.308,150.212 295.912 C 150.562 295.002,161.450 284.800,162.072 284.800 C 162.786 284.800,173.600 295.651,173.600 296.367 C 173.600 296.673,171.620 298.930,169.200 301.382 C 166.780 303.835,164.800 305.968,164.800 306.121 C 164.800 307.051,166.324 305.888,170.200 302.000 C 172.612 299.580,174.777 297.600,175.011 297.600 C 176.193 297.600,186.866 309.129,186.433 309.938 C 185.788 311.144,185.887 311.288,187.166 311.007 C 187.856 310.856,188.666 310.959,189.148 311.260 C 190.225 311.933,190.706 311.402,189.864 310.471 C 189.499 310.067,189.200 309.569,189.200 309.363 C 189.200 308.859,200.504 297.600,201.010 297.600 C 202.432 297.600,212.938 309.195,212.410 310.182 C 211.784 311.350,212.103 311.945,212.969 311.226 C 213.293 310.957,214.062 310.796,214.679 310.869 C 215.708 310.989,215.790 310.902,215.681 309.800 C 215.565 308.639,225.863 297.580,227.032 297.609 C 227.234 297.614,229.371 299.504,231.780 301.809 C 234.190 304.114,236.305 306.000,236.480 306.000 C 237.445 306.000,236.364 304.551,232.600 300.800 C 230.290 298.498,228.400 296.445,228.400 296.239 C 228.400 295.479,239.366 284.800,240.147 284.800 C 240.920 284.800,250.838 294.220,251.669 295.743 C 251.991 296.334,251.840 296.742,250.929 297.743 C 248.036 300.920,247.838 301.200,248.487 301.200 C 248.832 301.200,250.029 300.377,251.148 299.370 C 252.664 298.008,253.390 297.606,253.992 297.797 C 254.673 298.014,254.800 297.876,254.800 296.922 C 254.800 295.661,265.221 284.800,266.430 284.800 C 266.771 284.800,267.568 285.340,268.200 286.000 C 269.289 287.137,270.400 287.580,270.400 286.878 C 270.400 286.702,269.770 285.946,269.000 285.200 C 267.090 283.349,266.912 283.676,273.305 277.295 C 279.837 270.774,279.169 271.101,281.530 273.277 C 283.761 275.333,284.372 274.624,282.246 272.447 C 280.211 270.363,280.198 270.390,286.305 264.295 C 291.892 258.718,292.410 258.378,293.759 259.400 C 294.944 260.297,295.285 259.682,294.323 258.381 L 293.453 257.205 296.727 253.851 C 299.661 250.845,300.540 249.600,299.727 249.600 C 299.577 249.600,297.979 251.040,296.176 252.800 C 294.373 254.560,292.665 256.000,292.381 256.000 C 291.637 256.000,280.800 245.158,280.800 244.413 C 280.800 243.043,292.281 232.206,293.071 232.830 C 293.467 233.144,295.843 235.425,298.349 237.900 C 300.856 240.375,303.063 242.400,303.253 242.400 C 304.231 242.400,303.147 241.011,298.513 236.327 L 293.425 231.185 299.207 225.393 C 305.642 218.947,305.613 218.961,307.800 221.200 C 308.659 222.080,309.506 222.800,309.681 222.800 C 310.448 222.800,309.878 221.643,308.400 220.200 C 306.345 218.193,306.336 218.236,309.400 215.200 C 310.878 213.735,312.000 212.277,312.000 211.822 C 312.000 211.211,311.307 211.708,309.091 213.910 C 305.377 217.599,305.958 217.770,299.200 211.000 L 293.410 205.200 299.200 199.400 C 305.980 192.608,305.356 192.779,309.248 196.648 C 310.958 198.347,312.554 199.613,312.857 199.510 C 313.207 199.390,312.229 198.121,310.100 195.935 C 306.137 191.864,306.179 192.501,309.631 188.941 C 313.390 185.064,312.854 184.237,309.002 187.972 C 307.398 189.527,305.839 190.800,305.537 190.800 C 304.923 190.800,293.600 179.609,293.600 179.001 C 293.600 178.317,304.851 167.600,305.570 167.600 C 305.950 167.600,306.683 168.050,307.200 168.600 C 307.717 169.150,308.288 169.600,308.470 169.600 C 309.140 169.600,308.770 168.512,307.786 167.587 C 306.983 166.832,306.825 166.395,307.027 165.477 C 307.269 164.373,307.227 164.330,306.141 164.567 C 305.091 164.797,304.541 164.357,299.258 159.061 C 292.702 152.490,292.891 153.226,296.771 149.413 C 298.107 148.099,299.200 146.884,299.200 146.713 C 299.200 145.845,297.922 146.657,295.600 149.000 C 294.183 150.430,292.745 151.600,292.406 151.600 C 291.611 151.600,280.800 140.783,280.800 139.987 C 280.800 139.656,282.600 137.592,284.800 135.400 C 287.000 133.208,288.800 131.277,288.800 131.108 C 288.800 130.164,287.358 131.228,283.800 134.800 C 281.608 137.000,279.629 138.800,279.402 138.800 C 278.870 138.800,267.600 127.520,267.600 126.987 C 267.600 126.766,269.400 124.792,271.600 122.600 C 275.172 119.042,276.236 117.600,275.292 117.600 C 275.123 117.600,273.192 119.400,271.000 121.600 C 268.808 123.800,266.739 125.600,266.402 125.600 C 266.065 125.600,263.185 122.991,260.001 119.801 L 254.213 114.002 258.106 110.094 C 261.598 106.589,262.616 105.200,261.691 105.200 C 261.521 105.200,259.856 106.742,257.991 108.628 C 253.010 113.662,254.013 113.802,247.347 107.147 C 240.834 100.646,241.069 101.113,243.200 98.896 C 244.080 97.980,244.800 97.044,244.800 96.815 C 244.800 95.957,243.710 96.453,242.200 98.000 C 240.158 100.091,240.459 100.203,235.781 95.600 C 232.148 92.025,230.800 91.018,230.800 91.877 C 230.800 92.030,232.600 93.984,234.800 96.219 C 237.000 98.455,238.800 100.537,238.800 100.847 C 238.800 101.440,227.635 112.800,227.053 112.800 C 226.270 112.800,215.600 101.828,215.600 101.024 C 215.600 100.488,217.324 98.468,220.400 95.400 C 223.040 92.767,225.200 90.475,225.200 90.306 C 225.200 89.334,223.668 90.521,219.400 94.800 C 216.767 97.440,214.354 99.600,214.038 99.600 C 213.197 99.600,202.460 88.824,202.320 87.838 C 202.139 86.573,200.160 86.446,199.795 87.677 M207.095 94.895 C 210.233 98.027,212.800 100.780,212.800 101.013 C 212.800 101.510,201.497 112.800,201.000 112.800 C 200.509 112.800,189.200 101.513,189.200 101.023 C 189.200 100.491,200.460 89.200,200.990 89.200 C 201.210 89.200,203.957 91.763,207.095 94.895 M168.095 107.895 C 171.123 110.917,173.600 113.659,173.600 113.989 C 173.600 114.780,162.790 125.600,162.000 125.600 C 161.207 125.600,149.747 114.127,150.129 113.714 C 153.452 110.124,161.552 102.400,161.994 102.400 C 162.322 102.400,165.067 104.873,168.095 107.895 M194.095 107.895 C 199.758 113.547,200.068 114.020,198.936 115.271 C 197.757 116.573,198.779 116.738,200.477 115.519 C 201.024 115.126,201.297 115.164,201.908 115.717 C 202.718 116.449,203.600 116.623,203.600 116.049 C 203.600 115.856,203.330 115.474,203.000 115.200 C 202.670 114.926,202.400 114.411,202.400 114.056 C 202.400 113.234,213.182 102.400,214.000 102.400 C 214.336 102.400,217.212 105.006,220.391 108.191 L 226.173 113.983 221.586 118.649 C 218.727 121.558,217.201 123.385,217.533 123.502 C 217.832 123.606,219.961 121.822,222.373 119.444 C 224.742 117.110,226.845 115.200,227.045 115.200 C 228.126 115.200,238.900 126.746,238.671 127.659 C 238.450 128.541,238.546 128.600,240.200 128.600 C 241.854 128.600,241.950 128.541,241.729 127.659 C 241.499 126.742,252.276 115.200,253.362 115.200 C 253.821 115.200,264.315 125.529,264.849 126.506 C 265.159 127.073,264.830 127.639,263.177 129.386 C 260.404 132.319,260.798 133.204,263.668 130.489 C 264.883 129.340,266.128 128.400,266.433 128.400 C 267.187 128.400,278.000 139.234,278.000 139.989 C 278.000 141.100,267.134 151.600,265.985 151.600 C 265.080 151.600,264.960 151.764,264.960 153.000 C 264.960 154.222,265.086 154.400,265.947 154.400 C 267.024 154.400,277.375 164.260,277.841 165.731 C 278.202 166.868,267.466 177.600,265.967 177.600 C 264.435 177.600,264.541 180.510,266.076 180.577 C 267.158 180.625,278.000 191.061,278.000 192.055 C 278.000 193.174,266.677 204.002,265.760 203.760 C 265.003 203.560,264.929 203.691,265.014 205.069 C 265.092 206.326,265.259 206.600,265.946 206.600 C 266.801 206.600,278.000 217.377,278.000 218.200 C 278.000 219.050,266.542 230.067,265.798 229.932 C 265.208 229.825,265.069 230.066,265.064 231.200 C 265.059 232.369,265.201 232.600,265.921 232.600 C 266.836 232.600,278.000 243.373,278.000 244.256 C 278.000 244.513,275.391 247.295,272.202 250.439 C 264.703 257.832,264.723 256.512,272.000 263.800 C 276.787 268.595,278.034 270.061,277.842 270.669 C 277.511 271.712,267.084 282.000,266.359 282.000 C 266.043 282.000,264.081 280.290,262.000 278.200 C 259.919 276.110,258.077 274.400,257.908 274.400 C 256.989 274.400,257.963 275.777,261.028 278.809 C 265.923 283.652,265.988 282.785,260.305 288.483 C 257.607 291.187,254.905 293.836,254.301 294.369 L 253.201 295.338 247.401 289.587 C 240.688 282.932,240.882 283.478,244.063 280.165 C 245.947 278.204,246.344 277.600,245.750 277.600 C 245.322 277.600,243.995 278.590,242.800 279.800 C 240.082 282.552,240.495 282.629,236.378 278.600 C 233.223 275.513,232.000 274.650,232.000 275.509 C 232.000 275.679,233.530 277.340,235.400 279.200 C 239.684 283.461,239.834 282.811,232.999 289.587 L 227.199 295.338 226.159 294.369 C 221.367 289.904,215.600 283.846,215.600 283.278 C 215.600 282.895,217.130 281.060,219.000 279.200 C 220.870 277.340,222.400 275.679,222.400 275.509 C 222.400 274.592,221.027 275.557,218.000 278.600 C 213.887 282.734,214.396 282.734,210.118 278.607 C 208.183 276.742,206.465 275.212,206.300 275.207 C 205.382 275.185,206.374 276.590,209.400 279.600 C 211.270 281.460,212.800 283.174,212.800 283.409 C 212.800 284.508,201.278 295.270,200.536 294.865 C 199.577 294.342,189.200 283.838,189.200 283.392 C 189.200 283.204,190.865 281.346,192.900 279.265 C 195.279 276.831,196.406 275.413,196.056 275.292 C 195.748 275.186,194.009 276.600,192.048 278.552 C 187.821 282.759,188.136 282.757,184.000 278.600 C 180.972 275.556,179.600 274.592,179.600 275.509 C 179.600 275.680,181.052 277.255,182.828 279.009 C 187.587 283.714,187.703 282.820,181.532 289.066 C 174.341 296.345,175.762 296.290,168.964 289.551 C 165.794 286.408,163.200 283.644,163.200 283.409 C 163.200 283.174,164.730 281.460,166.600 279.600 C 169.754 276.463,170.611 275.200,169.586 275.200 C 169.358 275.200,167.585 276.730,165.645 278.600 C 161.446 282.648,162.052 282.561,158.940 279.573 C 155.576 276.342,154.697 276.867,157.960 280.159 C 159.302 281.514,160.400 282.884,160.400 283.206 C 160.400 283.979,149.583 294.800,148.811 294.800 C 148.019 294.800,137.200 283.989,137.200 283.198 C 137.200 282.861,139.090 280.702,141.400 278.400 C 143.710 276.098,145.600 274.076,145.600 273.907 C 145.600 272.955,144.136 274.052,140.400 277.800 C 138.098 280.110,136.033 282.000,135.812 282.000 C 135.273 282.000,124.000 270.726,124.000 270.187 C 124.000 269.955,126.604 267.183,129.786 264.027 L 135.573 258.290 136.639 258.989 L 137.705 259.688 137.438 258.262 C 137.271 257.370,137.358 256.537,137.670 256.036 C 138.335 254.972,137.795 254.499,136.871 255.336 C 136.467 255.701,135.973 256.000,135.774 256.000 C 135.275 256.000,124.000 244.709,124.000 244.210 C 124.000 243.732,135.244 232.400,135.719 232.400 C 135.900 232.400,137.010 233.310,138.186 234.423 C 140.860 236.951,141.527 236.343,139.021 233.663 C 136.768 231.255,136.770 231.143,139.084 228.669 C 141.514 226.071,140.662 225.671,138.000 228.161 C 136.919 229.172,135.894 230.000,135.722 230.000 C 135.258 230.000,124.000 218.677,124.000 218.210 C 124.000 217.736,135.242 206.400,135.712 206.400 C 135.889 206.400,136.919 207.228,138.000 208.239 C 140.662 210.729,141.514 210.329,139.084 207.731 C 136.770 205.257,136.768 205.145,139.021 202.737 C 141.527 200.057,140.860 199.449,138.186 201.977 C 137.010 203.090,135.916 204.000,135.755 204.000 C 135.294 204.000,124.000 192.684,124.000 192.223 C 124.000 191.678,135.267 180.400,135.812 180.400 C 136.044 180.400,137.028 181.210,138.000 182.200 C 139.619 183.849,140.800 184.475,140.800 183.683 C 140.800 183.509,139.990 182.572,139.000 181.600 C 136.768 179.410,136.769 179.143,139.021 176.737 C 141.527 174.057,140.860 173.449,138.186 175.977 C 137.010 177.090,135.916 178.000,135.755 178.000 C 135.263 178.000,124.000 166.668,124.000 166.173 C 124.000 165.612,134.984 154.646,135.703 154.489 C 135.983 154.428,137.011 155.193,137.989 156.189 C 139.617 157.848,140.800 158.477,140.800 157.683 C 140.800 157.509,139.990 156.572,139.000 155.600 C 138.010 154.628,137.200 153.575,137.200 153.258 C 137.200 152.942,138.010 151.817,139.000 150.759 C 141.938 147.618,141.271 146.879,138.135 149.800 C 135.516 152.239,135.710 152.323,129.451 146.051 C 122.828 139.416,122.803 140.544,129.735 133.679 C 135.951 127.524,135.492 127.658,138.812 131.029 C 141.688 133.949,142.800 134.747,142.800 133.888 C 142.800 133.590,141.540 132.099,140.001 130.574 C 138.461 129.048,137.201 127.493,137.201 127.117 C 137.200 126.429,148.221 115.200,148.897 115.200 C 150.118 115.200,160.502 126.391,160.285 127.473 C 160.065 128.574,160.101 128.600,161.840 128.600 C 163.530 128.600,163.609 128.550,163.402 127.600 C 163.213 126.734,163.955 125.831,168.939 120.858 C 175.645 114.167,174.545 114.275,179.992 119.773 C 183.378 123.190,184.800 124.231,184.800 123.293 C 184.800 123.124,182.910 121.102,180.600 118.800 C 178.290 116.498,176.400 114.343,176.400 114.012 C 176.400 113.227,187.206 102.400,187.989 102.400 C 188.320 102.400,191.067 104.873,194.095 107.895 M246.484 107.916 C 249.518 110.949,252.000 113.678,252.000 113.980 C 252.000 114.694,240.897 125.600,240.170 125.600 C 239.484 125.600,228.400 114.604,228.400 113.923 C 228.400 113.101,239.358 102.400,240.200 102.400 C 240.654 102.400,243.225 104.656,246.484 107.916 M195.775 122.182 C 194.672 123.865,195.195 124.000,202.836 124.000 C 210.576 124.000,211.395 123.762,209.787 121.985 C 208.562 120.632,196.681 120.800,195.775 122.182 M178.005 128.995 C 176.055 131.343,178.183 140.490,181.170 142.600 L 182.869 143.800 202.800 143.800 L 222.731 143.800 224.430 142.600 C 227.053 140.747,227.761 138.989,227.939 133.895 C 228.153 127.748,231.136 128.400,202.800 128.400 C 181.786 128.400,178.431 128.480,178.005 128.995 M152.200 133.575 C 149.255 134.080,147.594 135.294,146.148 138.000 C 145.426 139.351,145.400 141.609,145.400 202.000 L 145.400 264.600 146.496 266.465 C 147.100 267.491,148.270 268.751,149.096 269.265 L 150.600 270.200 202.829 270.200 L 255.058 270.200 256.721 269.100 C 257.636 268.494,258.793 267.234,259.292 266.300 L 260.200 264.600 260.309 203.200 C 260.424 138.451,260.437 138.973,258.564 136.517 C 256.402 133.683,255.355 133.444,244.400 133.279 C 232.667 133.103,232.592 133.120,232.288 136.070 C 231.962 139.242,231.823 139.200,242.516 139.200 L 251.680 139.200 253.001 140.521 C 254.929 142.449,254.881 140.613,254.660 203.870 C 254.445 265.847,254.573 262.618,252.274 264.020 C 250.276 265.238,155.324 265.238,153.326 264.020 C 151.063 262.640,151.184 265.724,150.964 203.697 C 150.739 140.531,150.690 142.430,152.610 140.510 L 153.920 139.200 163.084 139.200 C 173.777 139.200,173.638 139.242,173.312 136.070 C 173.128 134.283,172.936 133.880,172.120 133.570 C 171.018 133.151,154.648 133.155,152.200 133.575 M128.669 146.882 C 131.821 150.007,134.400 152.770,134.400 153.022 C 134.400 153.575,123.399 164.553,122.687 164.711 C 121.678 164.936,110.689 153.353,111.135 152.536 C 111.654 151.585,122.160 141.200,122.602 141.200 C 122.787 141.200,125.517 143.757,128.669 146.882 M285.900 147.302 C 288.815 150.252,291.200 152.829,291.200 153.028 C 291.200 153.525,279.908 164.800,279.410 164.800 C 278.873 164.800,267.600 153.525,267.600 152.987 C 267.600 152.755,270.194 149.992,273.364 146.849 C 280.160 140.111,278.746 140.060,285.900 147.302 M155.648 143.743 C 155.317 144.141,155.224 159.741,155.299 202.243 L 155.400 260.200 202.800 260.200 L 250.200 260.200 250.301 202.243 C 250.376 159.741,250.283 144.141,249.952 143.743 C 249.596 143.314,247.506 143.200,239.965 143.200 L 230.428 143.200 229.114 144.325 C 224.370 148.389,224.378 148.388,202.800 148.388 C 181.222 148.388,181.230 148.389,176.486 144.325 L 175.172 143.200 165.635 143.200 C 158.094 143.200,156.004 143.314,155.648 143.743 M115.695 159.895 C 118.723 162.917,121.200 165.659,121.200 165.989 C 121.200 166.774,110.393 177.600,109.611 177.600 C 108.826 177.600,98.000 166.793,98.000 166.011 C 98.000 165.226,108.807 154.400,109.589 154.400 C 109.920 154.400,112.667 156.873,115.695 159.895 M298.799 160.213 L 304.563 166.027 298.787 171.813 C 295.610 174.996,292.740 177.600,292.410 177.600 C 291.626 177.600,280.800 166.793,280.800 166.011 C 280.800 165.212,291.614 154.400,292.412 154.400 C 292.755 154.400,295.629 157.016,298.799 160.213 M188.946 159.629 L 190.000 160.458 190.000 170.785 C 190.000 180.355,189.944 181.180,189.236 182.056 L 188.471 183.000 178.078 183.000 C 168.419 183.000,167.625 182.946,166.842 182.238 C 165.564 181.082,165.526 160.874,166.800 159.600 C 168.058 158.342,187.342 158.367,188.946 159.629 M206.311 161.823 C 209.203 163.848,207.018 165.600,201.600 165.600 C 196.935 165.600,196.000 165.267,196.000 163.609 C 196.000 161.710,197.186 161.200,201.600 161.200 C 204.412 161.200,205.657 161.365,206.311 161.823 M170.489 163.671 C 169.687 164.473,169.811 177.354,170.629 178.171 C 171.278 178.821,182.561 179.121,184.709 178.546 L 185.617 178.302 185.509 170.851 L 185.400 163.400 178.189 163.291 C 172.917 163.212,170.846 163.314,170.489 163.671 M128.949 173.149 C 133.290 177.499,134.434 178.864,134.241 179.469 C 133.908 180.520,123.481 190.800,122.749 190.800 C 121.500 190.800,110.696 179.342,111.148 178.497 C 111.817 177.248,122.134 167.600,122.802 167.600 C 123.137 167.600,125.903 170.097,128.949 173.149 M285.718 173.132 C 288.733 176.175,291.200 178.827,291.200 179.027 C 291.200 179.525,279.909 190.800,279.410 190.800 C 278.887 190.800,267.600 179.532,267.600 179.010 C 267.600 178.204,278.578 167.600,279.413 167.600 C 279.941 167.600,282.207 169.588,285.718 173.132 M236.400 172.000 C 237.347 172.947,237.402 173.571,236.632 174.624 C 235.992 175.499,199.297 176.073,197.110 175.242 C 195.661 174.691,195.439 173.325,196.608 172.156 L 197.564 171.200 216.582 171.200 C 235.067 171.200,235.622 171.222,236.400 172.000 M115.668 185.882 C 118.899 189.083,121.200 191.678,121.200 192.120 C 121.200 192.958,117.481 196.966,112.672 201.309 L 109.545 204.135 103.772 198.372 C 100.598 195.203,98.000 192.330,98.000 191.987 C 98.000 191.230,108.843 180.400,109.600 180.400 C 109.895 180.400,112.625 182.867,115.668 185.882 M298.468 185.882 C 301.511 188.896,304.000 191.615,304.000 191.924 C 304.000 192.690,302.973 193.830,297.276 199.380 L 292.371 204.160 286.585 198.385 C 283.403 195.209,280.800 192.330,280.800 191.987 C 280.800 191.230,291.643 180.400,292.400 180.400 C 292.695 180.400,295.425 182.867,298.468 185.882 M188.167 192.203 L 189.645 193.206 191.049 192.135 C 192.849 190.763,194.523 191.142,194.733 192.970 C 194.907 194.488,182.091 207.600,180.433 207.600 C 179.061 207.600,173.600 202.127,173.600 200.751 C 173.600 198.291,175.964 198.111,178.200 200.400 C 180.238 202.487,180.594 202.435,183.351 199.649 C 187.032 195.929,186.889 195.822,178.024 195.691 C 169.193 195.560,170.014 194.786,170.006 203.251 C 169.999 211.526,169.248 210.847,178.246 210.709 L 185.387 210.600 185.636 209.069 C 186.308 204.929,189.699 205.108,189.919 209.296 C 190.199 214.608,189.003 215.200,178.000 215.200 C 165.572 215.200,165.999 215.630,166.001 203.120 C 166.004 190.730,165.465 191.262,178.044 191.225 C 186.632 191.200,186.698 191.207,188.167 192.203 M380.562 199.400 C 380.562 202.920,380.624 204.306,380.698 202.481 C 380.772 200.656,380.772 197.776,380.697 196.081 C 380.622 194.386,380.561 195.880,380.562 199.400 M128.895 199.095 C 131.923 202.117,134.400 204.870,134.400 205.213 C 134.400 205.993,123.546 216.800,122.763 216.800 C 122.448 216.800,119.584 214.190,116.400 211.000 L 110.610 205.200 116.400 199.400 C 119.584 196.210,122.460 193.600,122.790 193.600 C 123.120 193.600,125.867 196.073,128.895 199.095 M285.718 199.132 C 288.733 202.175,291.200 204.827,291.200 205.027 C 291.200 205.579,279.881 216.800,279.324 216.800 C 278.627 216.800,267.589 205.913,267.595 205.232 C 267.603 204.289,278.451 193.600,279.400 193.600 C 279.945 193.600,282.151 195.532,285.718 199.132 M224.000 196.800 C 224.440 197.240,224.800 197.870,224.800 198.200 C 224.800 200.295,224.122 200.400,210.626 200.400 C 196.056 200.400,195.021 200.190,195.992 197.423 C 196.440 196.145,197.354 196.057,210.500 196.028 C 222.687 196.001,223.232 196.032,224.000 196.800 M236.400 206.800 C 237.472 207.872,237.408 208.579,236.146 209.571 C 235.114 210.383,234.705 210.400,216.328 210.400 L 197.564 210.400 196.586 209.422 C 195.550 208.386,195.598 207.414,196.732 206.500 C 197.948 205.521,235.404 205.804,236.400 206.800 M115.668 211.882 C 119.268 215.449,121.200 217.655,121.200 218.200 C 121.200 219.023,110.570 230.000,109.773 230.000 C 109.275 230.000,98.000 218.709,98.000 218.210 C 98.000 217.704,109.259 206.400,109.763 206.400 C 109.968 206.400,112.625 208.867,115.668 211.882 M298.468 211.882 C 302.068 215.449,304.000 217.655,304.000 218.200 C 304.000 219.023,293.370 230.000,292.573 230.000 C 292.027 230.000,280.800 218.684,280.800 218.134 C 280.800 217.587,292.012 206.410,292.568 206.404 C 292.770 206.402,295.425 208.867,298.468 211.882 M128.895 225.095 C 131.923 228.117,134.400 230.859,134.400 231.189 C 134.400 231.980,123.590 242.800,122.800 242.800 C 122.464 242.800,119.584 240.190,116.400 237.000 L 110.610 231.200 116.400 225.400 C 119.584 222.210,122.460 219.600,122.790 219.600 C 123.120 219.600,125.867 222.073,128.895 225.095 M285.547 225.347 C 290.482 230.291,291.227 231.200,290.876 231.847 C 290.128 233.227,279.980 242.800,279.266 242.800 C 278.438 242.800,267.600 231.997,267.600 231.172 C 267.600 230.448,278.532 219.600,279.261 219.600 C 279.563 219.600,282.392 222.186,285.547 225.347 M189.269 224.262 C 189.942 224.871,190.000 225.760,190.000 235.433 L 190.000 245.942 188.922 246.790 C 187.354 248.023,168.225 247.892,166.841 246.638 C 165.677 245.584,165.517 225.597,166.662 224.331 C 167.626 223.267,188.099 223.204,189.269 224.262 M170.489 228.071 C 169.792 228.768,169.804 241.578,170.502 242.533 C 170.949 243.145,171.785 243.207,178.202 243.110 L 185.400 243.000 185.400 235.400 L 185.400 227.800 178.189 227.691 C 172.917 227.612,170.846 227.714,170.489 228.071 M209.474 229.596 C 210.569 231.796,209.640 232.186,203.006 232.311 C 196.623 232.431,196.000 232.264,196.000 230.431 C 196.000 228.507,196.490 228.371,202.979 228.490 C 208.924 228.599,208.982 228.609,209.474 229.596 M115.628 237.943 C 118.966 241.264,121.200 243.798,121.200 244.262 C 121.200 245.088,110.487 256.000,109.676 256.000 C 108.968 256.000,98.000 245.129,98.000 244.428 C 98.000 243.801,109.111 232.400,109.722 232.400 C 109.906 232.400,112.563 234.895,115.628 237.943 M236.469 239.062 C 237.376 239.883,237.398 240.718,236.538 241.669 C 235.914 242.358,234.758 242.400,216.347 242.400 L 196.818 242.400 196.163 241.400 C 195.556 240.474,195.556 240.326,196.163 239.400 L 196.818 238.400 216.278 238.400 C 233.823 238.400,235.809 238.465,236.469 239.062 M128.665 250.879 C 131.597 253.783,134.107 256.506,134.241 256.931 C 134.519 257.806,123.923 268.800,122.801 268.800 C 122.182 268.800,110.800 257.971,110.800 257.383 C 110.800 256.796,122.154 245.600,122.749 245.600 C 123.071 245.600,125.733 247.976,128.665 250.879 M285.495 251.295 C 288.633 254.427,291.200 257.158,291.200 257.363 C 291.200 258.166,280.229 268.800,279.400 268.800 C 278.577 268.800,267.600 258.170,267.600 257.373 C 267.600 256.875,278.891 245.600,279.390 245.600 C 279.610 245.600,282.357 248.163,285.495 251.295 M194.095 290.295 C 197.123 293.317,199.600 296.059,199.600 296.389 C 199.600 297.174,188.793 308.000,188.011 308.000 C 187.226 308.000,176.400 297.193,176.400 296.411 C 176.400 295.626,187.207 284.800,187.989 284.800 C 188.320 284.800,191.067 287.273,194.095 290.295 M220.095 290.295 C 223.123 293.317,225.600 296.059,225.600 296.389 C 225.600 297.157,214.802 308.000,214.037 308.000 C 213.261 308.000,202.400 297.196,202.400 296.424 C 202.400 295.631,213.199 284.800,213.989 284.800 C 214.320 284.800,217.067 287.273,220.095 290.295 M119.068 303.300 C 117.414 305.995,114.607 310.530,112.830 313.378 C 108.967 319.571,108.970 319.544,111.887 321.369 C 114.942 323.280,114.898 323.295,117.423 319.382 C 120.177 315.113,120.079 315.142,123.861 317.512 C 127.716 319.929,127.736 320.026,125.230 324.114 C 124.113 325.934,123.200 327.630,123.200 327.881 C 123.200 328.460,127.544 331.200,128.462 331.200 C 129.036 331.200,141.051 312.697,141.879 310.537 C 142.112 309.932,137.317 306.719,136.435 306.889 C 136.105 306.952,134.879 308.533,133.710 310.402 C 131.124 314.535,131.118 314.537,127.175 312.135 C 123.384 309.827,123.377 309.786,126.000 305.600 C 128.501 301.610,128.498 301.560,125.648 299.829 C 122.371 297.838,122.444 297.800,119.068 303.300 M271.800 306.791 C 262.094 310.003,258.863 321.662,265.719 328.734 C 273.272 336.524,287.056 332.334,289.167 321.606 C 291.099 311.786,281.486 303.585,271.800 306.791 M278.831 313.710 C 283.983 317.181,283.180 324.497,277.480 326.032 C 270.474 327.919,265.908 317.371,272.096 313.598 C 273.947 312.470,277.068 312.522,278.831 313.710 M155.238 317.688 C 152.056 319.030,151.922 319.494,153.938 322.164 C 155.829 324.669,155.769 324.646,158.009 323.750 C 163.760 321.448,168.506 327.483,165.470 333.237 C 163.185 337.568,157.323 337.882,154.805 333.809 C 153.769 332.131,153.098 332.100,149.764 333.575 C 147.660 334.505,147.541 335.206,149.100 337.494 C 155.042 346.214,169.130 344.658,172.819 334.875 C 176.911 324.022,165.852 313.212,155.238 317.688 M246.022 318.339 C 243.252 319.049,243.475 318.776,242.642 322.469 C 242.367 323.686,241.635 323.988,236.478 325.006 C 232.782 325.735,232.610 325.682,231.172 323.355 C 230.224 321.821,229.569 321.712,225.830 322.463 C 222.510 323.129,222.452 322.976,230.405 334.479 C 239.397 347.483,238.149 346.213,241.346 345.610 C 245.358 344.853,244.995 345.647,247.853 331.370 C 250.931 315.990,251.079 317.043,246.022 318.339 M196.023 323.838 C 190.110 325.427,188.608 328.497,188.039 340.159 C 187.584 349.483,187.318 348.800,191.401 348.800 L 194.717 348.800 194.950 345.700 C 195.078 343.995,195.295 340.412,195.433 337.737 C 195.788 330.852,197.409 328.839,201.653 330.010 C 204.535 330.806,204.600 331.044,204.600 340.747 L 204.600 349.400 207.762 349.518 C 209.501 349.583,211.068 349.492,211.244 349.316 C 211.981 348.579,212.157 332.280,211.452 330.155 C 209.680 324.822,202.817 322.012,196.023 323.838 M241.029 332.100 C 240.413 336.820,240.050 337.002,237.900 333.665 C 235.906 330.569,236.153 330.084,239.752 330.025 L 241.303 330.000 241.029 332.100 " stroke="none" fill="#f4f4f4" fill-rule="evenodd"></path><path id="path1" d="M186.000 20.373 C 186.000 20.544,184.695 20.727,183.100 20.780 C 179.885 20.888,179.067 20.970,177.600 21.329 C 177.050 21.464,175.700 21.668,174.600 21.783 C 173.500 21.899,171.700 22.155,170.600 22.352 C 169.500 22.550,168.465 22.631,168.300 22.532 C 168.135 22.434,168.000 22.513,168.000 22.710 C 168.000 22.906,167.775 23.081,167.500 23.099 C 167.225 23.117,166.227 23.177,165.283 23.232 C 164.338 23.287,163.473 23.483,163.359 23.666 C 163.246 23.850,162.479 24.000,161.656 24.000 C 160.833 24.000,159.989 24.163,159.780 24.363 C 159.571 24.562,158.770 24.819,158.000 24.933 C 157.230 25.047,156.029 25.317,155.330 25.533 C 154.632 25.750,153.961 25.828,153.840 25.706 C 153.719 25.585,153.390 25.674,153.110 25.904 C 152.829 26.134,152.150 26.385,151.600 26.461 C 151.050 26.537,150.510 26.715,150.400 26.855 C 150.290 26.996,149.390 27.221,148.400 27.356 C 147.410 27.492,144.913 28.142,142.851 28.801 C 140.789 29.461,138.854 30.000,138.551 30.000 C 138.248 30.000,138.000 30.142,138.000 30.315 C 138.000 30.488,137.685 30.654,137.300 30.684 C 136.915 30.714,135.730 31.112,134.667 31.569 C 133.604 32.026,132.479 32.400,132.167 32.400 C 131.855 32.400,131.600 32.550,131.600 32.733 C 131.600 32.917,131.352 33.067,131.048 33.067 C 130.745 33.067,129.710 33.429,128.748 33.872 C 127.787 34.315,126.415 34.929,125.700 35.236 C 124.985 35.544,124.400 35.931,124.400 36.098 C 124.400 36.264,124.175 36.399,123.900 36.397 C 123.141 36.393,115.200 40.463,115.200 40.857 C 115.200 41.045,114.885 41.204,114.500 41.209 C 114.115 41.214,113.350 41.570,112.800 42.000 C 112.250 42.430,111.609 42.786,111.375 42.791 C 111.142 42.796,110.595 43.115,110.160 43.500 C 109.725 43.885,108.483 44.650,107.399 45.200 C 105.016 46.409,95.280 52.766,94.300 53.753 C 93.915 54.140,93.600 54.344,93.600 54.205 C 93.600 53.959,86.587 59.230,84.996 60.671 C 84.554 61.072,83.384 62.053,82.396 62.851 C 81.408 63.650,79.471 65.371,78.091 66.676 C 76.711 67.981,75.527 68.993,75.459 68.926 C 75.320 68.786,71.294 72.997,66.600 78.193 C 64.840 80.142,63.162 81.975,62.871 82.268 C 62.581 82.561,62.422 82.800,62.519 82.800 C 62.615 82.800,62.071 83.461,61.308 84.270 C 60.058 85.595,58.513 87.545,55.600 91.472 C 51.421 97.107,43.002 110.270,42.999 111.174 C 42.999 111.298,42.618 111.940,42.152 112.600 C 41.319 113.781,34.800 126.866,34.800 127.357 C 34.800 127.495,34.426 128.405,33.969 129.378 C 33.511 130.350,33.096 131.383,33.047 131.673 C 32.997 131.963,32.674 132.740,32.329 133.400 C 31.984 134.060,31.565 135.050,31.398 135.600 C 31.232 136.150,30.786 137.320,30.408 138.200 C 28.717 142.132,27.194 146.258,27.197 146.900 C 27.199 147.285,27.009 147.600,26.776 147.600 C 26.543 147.600,26.444 147.748,26.556 147.929 C 26.668 148.109,26.523 148.713,26.233 149.270 C 25.944 149.828,25.611 150.805,25.492 151.442 C 25.073 153.687,24.774 155.006,24.549 155.600 C 24.424 155.930,24.241 156.740,24.142 157.400 C 24.043 158.060,23.848 158.870,23.709 159.200 C 23.426 159.872,23.328 160.417,23.152 162.300 C 23.085 163.015,22.933 163.600,22.815 163.600 C 22.697 163.600,22.545 164.449,22.478 165.486 C 22.411 166.522,22.221 167.557,22.056 167.785 C 21.890 168.013,21.708 169.272,21.650 170.583 C 21.592 171.893,21.425 173.153,21.279 173.383 C 21.132 173.612,20.992 174.250,20.968 174.800 C 20.944 175.350,20.869 177.105,20.801 178.700 C 20.734 180.295,20.535 181.600,20.359 181.600 C 19.925 181.600,19.977 212.810,20.412 213.623 C 20.602 213.977,20.799 215.817,20.851 217.711 C 20.904 219.606,21.066 221.083,21.212 220.993 C 21.358 220.902,21.520 221.767,21.572 222.914 C 21.680 225.298,21.785 226.190,22.126 227.600 C 22.259 228.150,22.444 229.320,22.538 230.200 C 22.631 231.080,22.808 232.070,22.932 232.400 C 23.055 232.730,23.247 233.630,23.358 234.400 C 23.470 235.170,23.740 236.515,23.958 237.389 C 24.177 238.263,24.277 239.056,24.181 239.152 C 24.085 239.248,24.167 239.523,24.362 239.763 C 24.557 240.003,24.812 240.830,24.928 241.600 C 25.045 242.370,25.321 243.585,25.542 244.300 C 25.763 245.015,25.822 245.603,25.672 245.606 C 25.522 245.609,25.609 245.745,25.863 245.907 C 26.118 246.069,26.404 246.832,26.498 247.601 C 26.592 248.370,26.767 249.270,26.887 249.600 C 27.496 251.272,28.185 253.835,28.099 254.100 C 28.044 254.265,28.180 254.400,28.400 254.400 C 28.620 254.400,28.800 254.820,28.800 255.334 C 28.800 256.301,30.185 260.843,30.874 262.135 C 31.089 262.539,31.342 263.293,31.436 263.809 C 31.530 264.326,31.965 265.585,32.403 266.607 C 32.841 267.630,33.200 268.721,33.200 269.033 C 33.200 269.345,33.391 269.600,33.624 269.600 C 33.857 269.600,33.956 269.748,33.844 269.929 C 33.732 270.109,33.866 270.694,34.141 271.229 C 34.416 271.763,34.927 272.920,35.278 273.800 C 37.424 279.186,44.264 292.116,45.379 292.894 C 45.610 293.056,45.673 293.191,45.518 293.194 C 44.908 293.207,51.904 304.000,52.523 304.000 C 52.749 304.000,52.820 304.113,52.682 304.251 C 52.323 304.610,59.154 313.457,63.299 318.000 C 76.822 332.823,90.350 343.976,108.151 354.979 C 110.483 356.420,112.528 357.604,112.696 357.609 C 112.863 357.614,113.450 357.970,114.000 358.400 C 114.550 358.830,115.300 359.186,115.667 359.191 C 116.033 359.196,116.393 359.360,116.467 359.556 C 116.730 360.259,129.595 367.069,129.606 366.512 C 129.609 366.340,129.744 366.380,129.906 366.601 C 130.278 367.108,133.617 368.669,134.800 368.889 C 135.130 368.950,135.506 369.144,135.636 369.320 C 135.766 369.496,136.261 369.669,136.736 369.705 C 137.211 369.741,137.600 369.873,137.600 369.998 C 137.600 370.251,140.796 371.257,141.355 371.180 C 141.551 371.154,141.821 371.308,141.955 371.525 C 142.090 371.741,142.650 371.981,143.200 372.059 C 143.750 372.136,144.290 372.297,144.400 372.416 C 144.719 372.761,153.734 375.187,155.654 375.445 C 156.614 375.574,157.571 375.841,157.780 376.040 C 157.989 376.238,158.833 376.400,159.656 376.400 C 160.479 376.400,161.246 376.550,161.359 376.734 C 161.473 376.917,162.338 377.113,163.283 377.168 C 164.227 377.223,165.225 377.283,165.500 377.301 C 165.775 377.319,166.000 377.450,166.000 377.592 C 166.000 377.807,167.544 377.993,170.300 378.112 C 170.575 378.124,170.800 378.245,170.800 378.381 C 170.800 378.517,171.115 378.642,171.500 378.659 C 175.281 378.824,176.800 378.977,176.800 379.192 C 176.800 379.332,178.457 379.494,180.482 379.553 C 182.506 379.611,184.456 379.816,184.814 380.008 C 185.657 380.459,212.732 380.465,213.573 380.014 C 213.925 379.826,215.919 379.627,218.006 379.572 C 220.093 379.516,222.075 379.335,222.412 379.169 C 222.748 379.002,224.098 378.824,225.412 378.772 C 226.725 378.721,228.083 378.537,228.428 378.364 C 228.773 378.191,229.971 377.994,231.090 377.926 C 232.209 377.858,233.041 377.667,232.939 377.501 C 232.836 377.335,233.663 377.178,234.776 377.150 C 236.901 377.098,237.037 377.078,238.000 376.688 C 238.330 376.554,239.256 376.367,240.058 376.272 C 240.860 376.177,241.670 376.006,241.858 375.893 C 242.046 375.779,243.096 375.566,244.192 375.419 C 245.984 375.179,254.103 373.113,255.600 372.516 C 255.930 372.385,256.647 372.203,257.193 372.112 C 257.738 372.022,258.278 371.825,258.393 371.674 C 258.507 371.523,259.050 371.336,259.600 371.259 C 260.150 371.181,260.690 371.001,260.800 370.859 C 260.910 370.716,261.450 370.536,262.000 370.459 C 262.550 370.381,263.110 370.141,263.245 369.925 C 263.379 369.708,263.610 369.565,263.757 369.606 C 264.285 369.754,267.600 368.618,267.600 368.289 C 267.600 368.104,267.748 368.044,267.929 368.156 C 268.109 368.268,268.760 368.098,269.374 367.780 C 269.989 367.461,270.741 367.200,271.046 367.200 C 271.351 367.200,271.600 367.020,271.600 366.800 C 271.600 366.580,271.943 366.400,272.362 366.400 C 272.781 366.400,273.816 366.052,274.662 365.627 C 275.508 365.202,278.135 363.923,280.500 362.784 C 282.865 361.646,284.800 360.554,284.800 360.357 C 284.800 360.161,285.072 360.000,285.405 360.000 C 285.961 360.000,287.524 359.277,288.000 358.799 C 288.110 358.689,288.740 358.332,289.400 358.005 C 293.064 356.192,303.600 349.336,303.600 348.764 C 303.600 348.564,303.735 348.443,303.900 348.495 C 304.233 348.600,307.354 346.495,308.600 345.324 C 309.040 344.910,309.777 344.308,310.237 343.986 C 311.796 342.895,314.991 340.208,316.700 338.553 C 317.635 337.647,318.400 337.003,318.400 337.123 C 318.400 337.242,319.413 336.318,320.652 335.070 C 321.890 333.821,323.004 332.800,323.127 332.800 C 323.379 332.800,326.072 330.006,331.473 324.143 C 337.918 317.145,346.043 306.738,350.800 299.388 C 353.999 294.445,355.149 292.541,355.271 291.986 C 355.342 291.664,355.515 291.310,355.655 291.200 C 356.396 290.619,362.433 279.173,364.378 274.662 C 364.771 273.748,365.451 272.190,365.888 271.200 C 369.112 263.891,373.600 250.900,373.600 248.878 C 373.600 248.421,373.742 247.959,373.916 247.852 C 374.090 247.744,374.279 246.974,374.335 246.140 C 374.391 245.307,374.567 244.529,374.727 244.412 C 374.887 244.295,375.076 243.570,375.149 242.800 C 375.221 242.030,375.487 241.268,375.740 241.106 C 375.993 240.944,376.084 240.809,375.942 240.806 C 375.800 240.803,375.856 240.125,376.065 239.300 C 376.275 238.475,376.545 237.080,376.666 236.200 C 376.787 235.320,377.018 234.420,377.178 234.200 C 377.338 233.980,377.508 233.003,377.555 232.029 C 377.602 231.055,377.732 230.110,377.843 229.930 C 378.144 229.443,378.355 228.150,378.458 226.168 C 378.508 225.196,378.656 224.400,378.787 224.400 C 378.918 224.400,379.078 223.103,379.142 221.518 C 379.207 219.932,379.445 218.291,379.670 217.869 C 379.977 217.296,379.959 217.178,379.600 217.400 C 379.239 217.623,379.224 217.503,379.540 216.912 C 379.771 216.480,379.990 214.118,380.027 211.663 C 380.063 209.209,380.207 207.200,380.346 207.200 C 380.486 207.200,380.600 203.707,380.600 199.438 C 380.600 195.169,380.486 191.747,380.347 191.833 C 380.207 191.919,380.053 190.237,380.004 188.095 C 379.900 183.502,379.763 181.788,379.466 181.306 C 379.346 181.112,379.210 179.884,379.165 178.576 C 379.120 177.269,378.940 176.014,378.765 175.787 C 378.589 175.559,378.408 174.479,378.361 173.387 C 378.314 172.294,378.142 171.130,377.978 170.800 C 377.814 170.470,377.621 169.570,377.549 168.800 C 377.476 168.030,377.288 167.305,377.130 167.190 C 376.972 167.074,376.798 166.219,376.743 165.290 C 376.688 164.360,376.537 163.600,376.407 163.600 C 376.277 163.600,376.145 163.285,376.114 162.900 C 376.036 161.914,375.713 160.419,375.251 158.900 C 375.034 158.185,374.924 157.600,375.008 157.600 C 375.091 157.600,374.896 156.970,374.574 156.200 C 374.252 155.430,374.127 154.797,374.295 154.794 C 374.463 154.791,374.396 154.656,374.147 154.494 C 373.898 154.332,373.593 153.480,373.469 152.600 C 373.082 149.848,368.048 135.088,367.210 134.250 C 366.985 134.025,366.800 133.550,366.800 133.195 C 366.800 132.840,366.440 131.805,366.000 130.894 C 365.560 129.984,365.200 129.050,365.200 128.819 C 365.200 128.589,365.009 128.400,364.776 128.400 C 364.543 128.400,364.451 128.242,364.570 128.048 C 364.788 127.696,356.733 111.287,356.122 110.837 C 355.945 110.707,355.172 109.340,354.405 107.800 C 353.188 105.356,345.547 93.668,342.478 89.556 C 334.706 79.142,326.140 69.812,316.624 61.400 C 312.915 58.121,306.164 52.704,305.842 52.748 C 305.720 52.766,305.186 52.378,304.657 51.887 C 303.302 50.632,294.564 44.812,291.017 42.803 C 290.238 42.361,288.925 41.614,288.100 41.143 C 282.629 38.016,272.068 33.001,271.361 33.194 C 271.212 33.235,270.979 33.118,270.845 32.934 C 270.710 32.750,269.970 32.362,269.200 32.071 C 267.263 31.339,257.800 27.977,257.800 28.021 C 257.800 28.040,257.293 27.864,256.674 27.628 C 256.055 27.393,255.120 27.200,254.598 27.200 C 254.075 27.200,253.536 27.020,253.400 26.800 C 253.264 26.580,252.634 26.400,252.000 26.400 C 251.366 26.400,250.736 26.220,250.600 26.000 C 250.464 25.780,249.643 25.600,248.776 25.600 C 247.909 25.600,247.200 25.458,247.200 25.285 C 247.200 25.112,246.618 24.926,245.907 24.872 C 245.195 24.817,244.439 24.599,244.227 24.387 C 244.014 24.174,243.167 24.000,242.344 24.000 C 241.521 24.000,240.754 23.850,240.641 23.666 C 240.527 23.483,239.681 23.303,238.759 23.267 C 237.837 23.231,236.859 23.015,236.584 22.787 C 236.309 22.559,235.930 22.400,235.742 22.433 C 234.614 22.636,231.188 22.343,231.363 22.059 C 231.479 21.872,230.465 21.686,229.110 21.645 C 227.756 21.604,226.457 21.426,226.224 21.248 C 225.991 21.071,224.092 20.884,222.005 20.833 C 219.918 20.782,218.113 20.583,217.994 20.391 C 217.728 19.960,186.000 19.942,186.000 20.373 M222.277 30.949 C 266.379 36.920,300.343 56.040,331.809 92.611 C 347.642 111.012,355.907 128.261,363.937 159.661 C 385.275 243.099,339.725 330.523,260.000 359.145 C 158.886 395.446,50.965 334.082,33.413 230.308 C 23.281 170.400,44.744 108.689,88.207 72.761 C 119.654 46.766,152.396 33.118,190.200 30.247 C 195.162 29.870,218.000 30.370,222.277 30.949 M184.400 38.228 C 95.846 48.312,31.663 126.687,39.637 215.000 C 50.667 337.155,188.149 403.470,290.000 335.762 C 312.695 320.676,334.093 296.710,342.186 277.317 C 343.360 274.503,345.529 269.500,347.004 266.200 C 356.192 245.657,359.257 234.620,361.003 215.800 C 366.670 154.704,340.152 98.017,290.200 64.452 C 261.534 45.190,218.009 34.402,184.400 38.228 M200.447 59.406 L 200.293 67.812 201.354 69.072 C 203.422 71.530,207.821 71.082,208.986 68.296 C 209.328 67.476,209.687 64.181,209.918 59.730 C 210.124 55.752,210.418 52.295,210.570 52.048 C 210.962 51.414,216.585 51.458,217.115 52.100 C 217.497 52.562,217.208 61.737,216.637 67.275 C 215.869 74.718,209.320 78.691,201.198 76.640 C 193.775 74.766,192.523 71.444,193.418 56.000 C 193.746 50.333,193.432 50.748,197.294 50.884 L 200.600 51.000 200.447 59.406 M166.861 54.900 C 167.843 55.699,181.696 76.006,181.751 76.726 C 181.789 77.226,181.064 77.535,178.630 78.056 L 175.460 78.735 174.330 77.525 C 173.709 76.860,173.200 76.161,173.200 75.972 C 173.200 74.949,171.589 74.891,167.442 75.764 C 162.867 76.727,162.586 76.916,162.183 79.300 C 162.042 80.134,161.693 81.050,161.407 81.336 C 160.813 81.930,155.285 83.018,154.886 82.620 C 154.498 82.232,159.622 56.693,160.216 56.052 C 160.496 55.750,161.777 55.274,163.062 54.993 C 166.139 54.320,166.149 54.320,166.861 54.900 M249.600 58.090 C 252.575 59.119,256.446 62.534,256.960 64.584 C 257.321 66.020,256.765 66.518,253.735 67.473 L 251.640 68.133 249.720 66.099 C 246.457 62.640,242.386 62.902,239.961 66.726 C 236.268 72.550,241.321 79.166,247.492 76.587 C 249.376 75.800,249.549 75.887,251.366 78.525 C 253.074 81.005,253.029 81.261,250.673 82.469 C 242.380 86.720,232.036 80.587,231.666 71.200 C 231.266 61.056,239.905 54.740,249.600 58.090 M164.672 64.956 C 164.221 66.133,163.917 70.302,164.267 70.518 C 165.020 70.983,168.400 69.957,168.400 69.263 C 168.400 67.528,165.133 63.754,164.672 64.956 M135.270 68.699 C 148.594 74.607,143.776 94.200,129.000 94.200 C 112.979 94.200,110.908 71.985,126.553 67.956 C 128.674 67.410,133.240 67.799,135.270 68.699 M279.234 70.422 C 282.353 72.423,282.341 72.304,279.850 76.460 C 277.296 80.720,277.210 80.376,281.486 83.040 C 285.071 85.275,285.038 85.285,287.600 81.200 C 290.111 77.196,290.181 77.169,293.173 79.016 C 296.354 80.979,296.601 80.164,289.211 92.100 C 282.376 103.139,282.809 102.763,279.408 100.588 C 276.710 98.862,276.703 98.657,279.200 94.724 C 281.759 90.693,281.766 90.735,278.100 88.386 C 274.037 85.783,274.068 85.776,271.506 89.900 C 270.310 91.825,269.050 93.455,268.707 93.521 C 268.075 93.644,263.874 91.166,263.392 90.387 C 263.248 90.154,265.431 86.237,268.242 81.682 C 277.142 67.258,276.049 68.378,279.234 70.422 M127.565 74.383 C 123.586 75.586,121.699 79.892,123.563 83.516 C 127.811 91.775,139.196 86.454,135.152 78.100 C 133.794 75.296,130.265 73.567,127.565 74.383 M202.320 87.838 C 202.460 88.824,213.197 99.600,214.038 99.600 C 214.354 99.600,216.767 97.440,219.400 94.800 C 223.668 90.521,225.200 89.334,225.200 90.306 C 225.200 90.475,223.040 92.767,220.400 95.400 C 217.324 98.468,215.600 100.488,215.600 101.024 C 215.600 101.828,226.270 112.800,227.053 112.800 C 227.635 112.800,238.800 101.440,238.800 100.847 C 238.800 100.537,237.000 98.455,234.800 96.219 C 232.600 93.984,230.800 92.030,230.800 91.877 C 230.800 91.018,232.148 92.025,235.781 95.600 C 240.459 100.203,240.158 100.091,242.200 98.000 C 243.710 96.453,244.800 95.957,244.800 96.815 C 244.800 97.044,244.080 97.980,243.200 98.896 C 241.069 101.113,240.834 100.646,247.347 107.147 C 254.013 113.802,253.010 113.662,257.991 108.628 C 259.856 106.742,261.521 105.200,261.691 105.200 C 262.616 105.200,261.598 106.589,258.106 110.094 L 254.213 114.002 260.001 119.801 C 263.185 122.991,266.065 125.600,266.402 125.600 C 266.739 125.600,268.808 123.800,271.000 121.600 C 273.192 119.400,275.123 117.600,275.292 117.600 C 276.236 117.600,275.172 119.042,271.600 122.600 C 269.400 124.792,267.600 126.766,267.600 126.987 C 267.600 127.520,278.870 138.800,279.402 138.800 C 279.629 138.800,281.608 137.000,283.800 134.800 C 287.358 131.228,288.800 130.164,288.800 131.108 C 288.800 131.277,287.000 133.208,284.800 135.400 C 282.600 137.592,280.800 139.656,280.800 139.987 C 280.800 140.783,291.611 151.600,292.406 151.600 C 292.745 151.600,294.183 150.430,295.600 149.000 C 297.922 146.657,299.200 145.845,299.200 146.713 C 299.200 146.884,298.107 148.099,296.771 149.413 C 292.891 153.226,292.702 152.490,299.258 159.061 C 304.541 164.357,305.091 164.797,306.141 164.567 C 307.227 164.330,307.269 164.373,307.027 165.477 C 306.825 166.395,306.983 166.832,307.786 167.587 C 308.770 168.512,309.140 169.600,308.470 169.600 C 308.288 169.600,307.717 169.150,307.200 168.600 C 306.683 168.050,305.950 167.600,305.570 167.600 C 304.851 167.600,293.600 178.317,293.600 179.001 C 293.600 179.609,304.923 190.800,305.537 190.800 C 305.839 190.800,307.398 189.527,309.002 187.972 C 312.854 184.237,313.390 185.064,309.631 188.941 C 306.179 192.501,306.137 191.864,310.100 195.935 C 312.229 198.121,313.207 199.390,312.857 199.510 C 312.554 199.613,310.958 198.347,309.248 196.648 C 305.356 192.779,305.980 192.608,299.200 199.400 L 293.410 205.200 299.200 211.000 C 305.958 217.770,305.377 217.599,309.091 213.910 C 311.307 211.708,312.000 211.211,312.000 211.822 C 312.000 212.277,310.878 213.735,309.400 215.200 C 306.336 218.236,306.345 218.193,308.400 220.200 C 309.878 221.643,310.448 222.800,309.681 222.800 C 309.506 222.800,308.659 222.080,307.800 221.200 C 305.613 218.961,305.642 218.947,299.207 225.393 L 293.425 231.185 298.513 236.327 C 303.147 241.011,304.231 242.400,303.253 242.400 C 303.063 242.400,300.856 240.375,298.349 237.900 C 295.843 235.425,293.467 233.144,293.071 232.830 C 292.281 232.206,280.800 243.043,280.800 244.413 C 280.800 245.158,291.637 256.000,292.381 256.000 C 292.665 256.000,294.373 254.560,296.176 252.800 C 297.979 251.040,299.577 249.600,299.727 249.600 C 300.540 249.600,299.661 250.845,296.727 253.851 L 293.453 257.205 294.323 258.381 C 295.285 259.682,294.944 260.297,293.759 259.400 C 292.410 258.378,291.892 258.718,286.305 264.295 C 280.198 270.390,280.211 270.363,282.246 272.447 C 284.372 274.624,283.761 275.333,281.530 273.277 C 279.169 271.101,279.837 270.774,273.305 277.295 C 266.912 283.676,267.090 283.349,269.000 285.200 C 269.770 285.946,270.400 286.702,270.400 286.878 C 270.400 287.580,269.289 287.137,268.200 286.000 C 267.568 285.340,266.771 284.800,266.430 284.800 C 265.221 284.800,254.800 295.661,254.800 296.922 C 254.800 297.876,254.673 298.014,253.992 297.797 C 253.390 297.606,252.664 298.008,251.148 299.370 C 250.029 300.377,248.832 301.200,248.487 301.200 C 247.838 301.200,248.036 300.920,250.929 297.743 C 251.840 296.742,251.991 296.334,251.669 295.743 C 250.838 294.220,240.920 284.800,240.147 284.800 C 239.366 284.800,228.400 295.479,228.400 296.239 C 228.400 296.445,230.290 298.498,232.600 300.800 C 236.364 304.551,237.445 306.000,236.480 306.000 C 236.305 306.000,234.190 304.114,231.780 301.809 C 229.371 299.504,227.234 297.614,227.032 297.609 C 225.863 297.580,215.565 308.639,215.681 309.800 C 215.790 310.902,215.708 310.989,214.679 310.869 C 214.062 310.796,213.293 310.957,212.969 311.226 C 212.103 311.945,211.784 311.350,212.410 310.182 C 212.938 309.195,202.432 297.600,201.010 297.600 C 200.504 297.600,189.200 308.859,189.200 309.363 C 189.200 309.569,189.499 310.067,189.864 310.471 C 190.706 311.402,190.225 311.933,189.148 311.260 C 188.666 310.959,187.856 310.856,187.166 311.007 C 185.887 311.288,185.788 311.144,186.433 309.938 C 186.866 309.129,176.193 297.600,175.011 297.600 C 174.777 297.600,172.612 299.580,170.200 302.000 C 166.324 305.888,164.800 307.051,164.800 306.121 C 164.800 305.968,166.780 303.835,169.200 301.382 C 171.620 298.930,173.600 296.673,173.600 296.367 C 173.600 295.651,162.786 284.800,162.072 284.800 C 161.450 284.800,150.562 295.002,150.212 295.912 C 150.060 296.308,150.989 297.561,152.890 299.524 C 156.597 303.352,155.825 303.921,151.971 300.200 C 149.899 298.200,149.015 297.590,148.496 297.804 C 146.388 298.672,146.161 298.624,146.919 297.467 C 147.864 296.025,147.782 295.906,141.697 289.900 C 135.847 284.124,135.750 284.088,133.116 286.683 C 131.842 287.938,131.072 288.432,130.805 288.165 C 130.538 287.898,131.071 287.109,132.403 285.798 C 135.055 283.185,135.195 283.515,128.751 277.166 C 122.228 270.738,122.805 270.960,120.000 273.800 C 118.030 275.794,116.800 276.520,116.800 275.686 C 116.800 275.514,117.790 274.395,119.000 273.200 C 121.903 270.333,122.010 270.622,115.705 264.305 C 109.610 258.198,109.637 258.211,107.553 260.246 C 105.414 262.335,104.747 261.581,106.781 259.374 C 108.864 257.114,109.307 257.945,102.200 250.787 C 96.694 245.242,95.129 243.200,96.387 243.200 C 96.986 243.200,108.410 231.867,108.405 231.278 C 108.399 230.637,97.196 219.600,96.551 219.600 C 96.297 219.600,95.067 220.590,93.818 221.800 C 90.155 225.347,89.469 224.537,93.000 220.834 C 95.708 217.995,95.753 218.431,92.400 214.973 C 87.225 209.636,88.942 209.882,94.581 215.285 C 95.450 216.118,96.348 216.800,96.576 216.800 C 97.091 216.800,108.400 205.550,108.400 205.037 C 108.400 204.241,97.430 193.600,96.608 193.600 C 96.109 193.600,94.596 194.792,92.800 196.600 C 91.161 198.250,89.681 199.600,89.510 199.600 C 88.616 199.600,89.508 198.274,92.200 195.600 C 95.831 191.993,95.821 192.165,92.600 188.829 C 91.170 187.348,90.000 186.015,90.000 185.868 C 90.000 185.045,91.321 185.901,93.600 188.200 C 95.017 189.630,96.360 190.800,96.583 190.800 C 97.094 190.800,108.400 179.545,108.400 179.037 C 108.400 178.228,97.429 167.600,96.593 167.600 C 96.129 167.600,95.232 168.140,94.600 168.800 C 93.968 169.460,93.304 170.000,93.125 170.000 C 92.420 170.000,92.861 168.891,94.000 167.800 C 95.226 166.625,95.542 165.459,94.765 164.978 C 94.484 164.805,94.468 164.572,94.718 164.322 C 94.968 164.072,95.406 164.122,95.952 164.463 C 96.787 164.984,108.400 154.285,108.400 152.994 C 108.400 152.766,107.140 151.328,105.600 149.800 C 103.083 147.302,102.230 146.000,103.111 146.000 C 103.282 146.000,104.672 147.260,106.200 148.800 C 107.728 150.340,109.251 151.600,109.584 151.600 C 110.380 151.600,121.200 140.793,121.200 139.998 C 121.200 139.661,119.400 137.592,117.200 135.400 C 113.628 131.841,112.564 130.400,113.508 130.400 C 113.677 130.400,115.522 132.122,117.608 134.227 C 123.055 139.724,121.956 139.832,128.653 133.147 C 131.814 129.992,134.400 127.231,134.400 127.011 C 134.400 126.792,132.381 124.588,129.913 122.113 C 126.921 119.112,125.560 117.480,125.827 117.213 C 126.094 116.946,127.686 118.277,130.607 121.207 C 133.015 123.623,135.257 125.600,135.588 125.600 C 136.199 125.600,147.600 114.482,147.600 113.886 C 147.600 113.708,145.980 111.930,144.000 109.935 C 142.020 107.940,140.400 106.148,140.400 105.954 C 140.400 105.032,141.606 105.892,145.050 109.270 C 147.109 111.289,148.875 112.864,148.974 112.770 C 153.207 108.799,160.400 101.289,160.400 100.842 C 160.400 100.507,159.754 99.572,158.964 98.763 C 157.065 96.818,157.881 96.333,159.932 98.186 C 161.991 100.046,161.747 100.132,166.113 96.000 C 168.206 94.020,170.026 92.400,170.159 92.400 C 170.960 92.400,169.978 93.738,166.800 96.979 C 164.820 98.998,163.200 100.821,163.200 101.030 C 163.200 101.239,165.786 103.992,168.947 107.147 C 175.731 113.919,174.313 113.973,181.532 106.666 C 187.783 100.339,187.773 101.507,181.627 95.407 C 179.192 92.991,177.200 90.876,177.200 90.707 C 177.200 89.741,178.709 90.897,182.800 95.000 C 185.323 97.530,187.662 99.600,187.999 99.600 C 188.815 99.600,199.445 88.855,199.795 87.677 C 200.160 86.446,202.139 86.573,202.320 87.838 M194.895 94.905 C 191.763 98.043,189.200 100.796,189.200 101.023 C 189.200 101.513,200.509 112.800,201.000 112.800 C 201.497 112.800,212.800 101.510,212.800 101.013 C 212.800 100.475,201.527 89.200,200.990 89.200 C 200.770 89.200,198.027 91.767,194.895 94.905 M155.909 107.900 C 152.890 110.925,150.289 113.541,150.129 113.714 C 149.747 114.127,161.207 125.600,162.000 125.600 C 162.790 125.600,173.600 114.780,173.600 113.989 C 173.600 113.210,162.775 102.400,161.994 102.400 C 161.667 102.400,158.929 104.875,155.909 107.900 M181.895 107.905 C 178.873 110.933,176.400 113.681,176.400 114.012 C 176.400 114.343,178.290 116.498,180.600 118.800 C 182.910 121.102,184.800 123.124,184.800 123.293 C 184.800 124.231,183.378 123.190,179.992 119.773 C 174.545 114.275,175.645 114.167,168.939 120.858 C 163.955 125.831,163.213 126.734,163.402 127.600 C 163.609 128.550,163.530 128.600,161.840 128.600 C 160.101 128.600,160.065 128.574,160.285 127.473 C 160.502 126.391,150.118 115.200,148.897 115.200 C 148.221 115.200,137.200 126.429,137.201 127.117 C 137.201 127.493,138.461 129.048,140.001 130.574 C 141.540 132.099,142.800 133.590,142.800 133.888 C 142.800 134.747,141.688 133.949,138.812 131.029 C 135.492 127.658,135.951 127.524,129.735 133.679 C 122.803 140.544,122.828 139.416,129.451 146.051 C 135.710 152.323,135.516 152.239,138.135 149.800 C 141.271 146.879,141.938 147.618,139.000 150.759 C 138.010 151.817,137.200 152.942,137.200 153.258 C 137.200 153.575,138.010 154.628,139.000 155.600 C 139.990 156.572,140.800 157.509,140.800 157.683 C 140.800 158.477,139.617 157.848,137.989 156.189 C 137.011 155.193,135.983 154.428,135.703 154.489 C 134.984 154.646,124.000 165.612,124.000 166.173 C 124.000 166.668,135.263 178.000,135.755 178.000 C 135.916 178.000,137.010 177.090,138.186 175.977 C 140.860 173.449,141.527 174.057,139.021 176.737 C 136.769 179.143,136.768 179.410,139.000 181.600 C 139.990 182.572,140.800 183.509,140.800 183.683 C 140.800 184.475,139.619 183.849,138.000 182.200 C 137.028 181.210,136.044 180.400,135.812 180.400 C 135.267 180.400,124.000 191.678,124.000 192.223 C 124.000 192.684,135.294 204.000,135.755 204.000 C 135.916 204.000,137.010 203.090,138.186 201.977 C 140.860 199.449,141.527 200.057,139.021 202.737 C 136.768 205.145,136.770 205.257,139.084 207.731 C 141.514 210.329,140.662 210.729,138.000 208.239 C 136.919 207.228,135.889 206.400,135.712 206.400 C 135.242 206.400,124.000 217.736,124.000 218.210 C 124.000 218.677,135.258 230.000,135.722 230.000 C 135.894 230.000,136.919 229.172,138.000 228.161 C 140.662 225.671,141.514 226.071,139.084 228.669 C 136.770 231.143,136.768 231.255,139.021 233.663 C 141.527 236.343,140.860 236.951,138.186 234.423 C 137.010 233.310,135.900 232.400,135.719 232.400 C 135.244 232.400,124.000 243.732,124.000 244.210 C 124.000 244.709,135.275 256.000,135.774 256.000 C 135.973 256.000,136.467 255.701,136.871 255.336 C 137.795 254.499,138.335 254.972,137.670 256.036 C 137.358 256.537,137.271 257.370,137.438 258.262 L 137.705 259.688 136.639 258.989 L 135.573 258.290 129.786 264.027 C 126.604 267.183,124.000 269.955,124.000 270.187 C 124.000 270.726,135.273 282.000,135.812 282.000 C 136.033 282.000,138.098 280.110,140.400 277.800 C 144.136 274.052,145.600 272.955,145.600 273.907 C 145.600 274.076,143.710 276.098,141.400 278.400 C 139.090 280.702,137.200 282.861,137.200 283.198 C 137.200 283.989,148.019 294.800,148.811 294.800 C 149.583 294.800,160.400 283.979,160.400 283.206 C 160.400 282.884,159.302 281.514,157.960 280.159 C 154.697 276.867,155.576 276.342,158.940 279.573 C 162.052 282.561,161.446 282.648,165.645 278.600 C 167.585 276.730,169.358 275.200,169.586 275.200 C 170.611 275.200,169.754 276.463,166.600 279.600 C 164.730 281.460,163.200 283.174,163.200 283.409 C 163.200 283.644,165.794 286.408,168.964 289.551 C 175.762 296.290,174.341 296.345,181.532 289.066 C 187.703 282.820,187.587 283.714,182.828 279.009 C 181.052 277.255,179.600 275.680,179.600 275.509 C 179.600 274.592,180.972 275.556,184.000 278.600 C 188.136 282.757,187.821 282.759,192.048 278.552 C 194.009 276.600,195.748 275.186,196.056 275.292 C 196.406 275.413,195.279 276.831,192.900 279.265 C 190.865 281.346,189.200 283.204,189.200 283.392 C 189.200 283.838,199.577 294.342,200.536 294.865 C 201.278 295.270,212.800 284.508,212.800 283.409 C 212.800 283.174,211.270 281.460,209.400 279.600 C 206.374 276.590,205.382 275.185,206.300 275.207 C 206.465 275.212,208.183 276.742,210.118 278.607 C 214.396 282.734,213.887 282.734,218.000 278.600 C 221.027 275.557,222.400 274.592,222.400 275.509 C 222.400 275.679,220.870 277.340,219.000 279.200 C 217.130 281.060,215.600 282.895,215.600 283.278 C 215.600 283.846,221.367 289.904,226.159 294.369 L 227.199 295.338 232.999 289.587 C 239.834 282.811,239.684 283.461,235.400 279.200 C 233.530 277.340,232.000 275.679,232.000 275.509 C 232.000 274.650,233.223 275.513,236.378 278.600 C 240.495 282.629,240.082 282.552,242.800 279.800 C 243.995 278.590,245.322 277.600,245.750 277.600 C 246.344 277.600,245.947 278.204,244.063 280.165 C 240.882 283.478,240.688 282.932,247.401 289.587 L 253.201 295.338 254.301 294.369 C 254.905 293.836,257.607 291.187,260.305 288.483 C 265.988 282.785,265.923 283.652,261.028 278.809 C 257.963 275.777,256.989 274.400,257.908 274.400 C 258.077 274.400,259.919 276.110,262.000 278.200 C 264.081 280.290,266.043 282.000,266.359 282.000 C 267.084 282.000,277.511 271.712,277.842 270.669 C 278.034 270.061,276.787 268.595,272.000 263.800 C 264.723 256.512,264.703 257.832,272.202 250.439 C 275.391 247.295,278.000 244.513,278.000 244.256 C 278.000 243.373,266.836 232.600,265.921 232.600 C 265.201 232.600,265.059 232.369,265.064 231.200 C 265.069 230.066,265.208 229.825,265.798 229.932 C 266.542 230.067,278.000 219.050,278.000 218.200 C 278.000 217.377,266.801 206.600,265.946 206.600 C 265.259 206.600,265.092 206.326,265.014 205.069 C 264.929 203.691,265.003 203.560,265.760 203.760 C 266.677 204.002,278.000 193.174,278.000 192.055 C 278.000 191.061,267.158 180.625,266.076 180.577 C 264.541 180.510,264.435 177.600,265.967 177.600 C 267.466 177.600,278.202 166.868,277.841 165.731 C 277.375 164.260,267.024 154.400,265.947 154.400 C 265.086 154.400,264.960 154.222,264.960 153.000 C 264.960 151.764,265.080 151.600,265.985 151.600 C 267.134 151.600,278.000 141.100,278.000 139.989 C 278.000 139.234,267.187 128.400,266.433 128.400 C 266.128 128.400,264.883 129.340,263.668 130.489 C 260.798 133.204,260.404 132.319,263.177 129.386 C 264.830 127.639,265.159 127.073,264.849 126.506 C 264.315 125.529,253.821 115.200,253.362 115.200 C 252.276 115.200,241.499 126.742,241.729 127.659 C 241.950 128.541,241.854 128.600,240.200 128.600 C 238.546 128.600,238.450 128.541,238.671 127.659 C 238.900 126.746,228.126 115.200,227.045 115.200 C 226.845 115.200,224.742 117.110,222.373 119.444 C 219.961 121.822,217.832 123.606,217.533 123.502 C 217.201 123.385,218.727 121.558,221.586 118.649 L 226.173 113.983 220.391 108.191 C 217.212 105.006,214.336 102.400,214.000 102.400 C 213.182 102.400,202.400 113.234,202.400 114.056 C 202.400 114.411,202.670 114.926,203.000 115.200 C 203.330 115.474,203.600 115.856,203.600 116.049 C 203.600 116.623,202.718 116.449,201.908 115.717 C 201.297 115.164,201.024 115.126,200.477 115.519 C 198.779 116.738,197.757 116.573,198.936 115.271 C 199.301 114.867,199.600 114.279,199.600 113.963 C 199.600 113.199,188.757 102.400,187.989 102.400 C 187.659 102.400,184.917 104.877,181.895 107.905 M233.916 107.916 C 230.882 110.949,228.400 113.653,228.400 113.923 C 228.400 114.604,239.484 125.600,240.170 125.600 C 240.897 125.600,252.000 114.694,252.000 113.980 C 252.000 113.119,241.078 102.400,240.200 102.400 C 239.746 102.400,237.175 104.656,233.916 107.916 M209.787 121.985 C 211.395 123.762,210.576 124.000,202.836 124.000 C 195.195 124.000,194.672 123.865,195.775 122.182 C 196.681 120.800,208.562 120.632,209.787 121.985 M227.595 128.995 C 229.545 131.343,227.417 140.490,224.430 142.600 L 222.731 143.800 202.800 143.800 L 182.869 143.800 181.170 142.600 C 178.547 140.747,177.839 138.989,177.661 133.895 C 177.447 127.748,174.464 128.400,202.800 128.400 C 223.814 128.400,227.169 128.480,227.595 128.995 M172.120 133.570 C 172.936 133.880,173.128 134.283,173.312 136.070 C 173.638 139.242,173.777 139.200,163.084 139.200 L 153.920 139.200 152.610 140.510 C 150.690 142.430,150.739 140.531,150.964 203.697 C 151.184 265.724,151.063 262.640,153.326 264.020 C 155.324 265.238,250.276 265.238,252.274 264.020 C 254.573 262.618,254.445 265.847,254.660 203.870 C 254.881 140.613,254.929 142.449,253.001 140.521 L 251.680 139.200 242.516 139.200 C 231.823 139.200,231.962 139.242,232.288 136.070 C 232.592 133.120,232.667 133.103,244.400 133.279 C 255.355 133.444,256.402 133.683,258.564 136.517 C 260.437 138.973,260.424 138.451,260.309 203.200 L 260.200 264.600 259.292 266.300 C 258.793 267.234,257.636 268.494,256.721 269.100 L 255.058 270.200 202.829 270.200 L 150.600 270.200 149.096 269.265 C 148.270 268.751,147.100 267.491,146.496 266.465 L 145.400 264.600 145.400 202.000 C 145.400 141.609,145.426 139.351,146.148 138.000 C 147.594 135.294,149.255 134.080,152.200 133.575 C 154.648 133.155,171.018 133.151,172.120 133.570 M116.902 146.500 C 113.951 149.415,111.356 152.131,111.135 152.536 C 110.689 153.353,121.678 164.936,122.687 164.711 C 123.399 164.553,134.400 153.575,134.400 153.022 C 134.400 152.503,123.120 141.200,122.602 141.200 C 122.417 141.200,119.852 143.585,116.902 146.500 M273.364 146.849 C 270.194 149.992,267.600 152.755,267.600 152.987 C 267.600 153.525,278.873 164.800,279.410 164.800 C 279.908 164.800,291.200 153.525,291.200 153.028 C 291.200 152.568,280.848 142.072,279.864 141.535 C 279.239 141.194,278.264 141.991,273.364 146.849 M176.486 144.325 C 181.230 148.389,181.222 148.388,202.800 148.388 C 224.378 148.388,224.370 148.389,229.114 144.325 L 230.428 143.200 239.965 143.200 C 247.506 143.200,249.596 143.314,249.952 143.743 C 250.283 144.141,250.376 159.741,250.301 202.243 L 250.200 260.200 202.800 260.200 L 155.400 260.200 155.299 202.243 C 155.224 159.741,155.317 144.141,155.648 143.743 C 156.004 143.314,158.094 143.200,165.635 143.200 L 175.172 143.200 176.486 144.325 M103.495 159.905 C 100.473 162.933,98.000 165.680,98.000 166.011 C 98.000 166.793,108.826 177.600,109.611 177.600 C 110.393 177.600,121.200 166.774,121.200 165.989 C 121.200 165.207,110.374 154.400,109.589 154.400 C 109.259 154.400,106.517 156.877,103.495 159.905 M286.295 159.905 C 283.273 162.933,280.800 165.680,280.800 166.011 C 280.800 166.793,291.626 177.600,292.410 177.600 C 292.740 177.600,295.610 174.996,298.787 171.813 L 304.563 166.027 298.799 160.213 C 295.629 157.016,292.755 154.400,292.412 154.400 C 292.070 154.400,289.317 156.877,286.295 159.905 M166.800 159.600 C 165.526 160.874,165.564 181.082,166.842 182.238 C 167.625 182.946,168.419 183.000,178.078 183.000 L 188.471 183.000 189.236 182.056 C 189.944 181.180,190.000 180.355,190.000 170.785 L 190.000 160.458 188.946 159.629 C 187.342 158.367,168.058 158.342,166.800 159.600 M196.889 161.823 C 193.997 163.848,196.182 165.600,201.600 165.600 C 206.265 165.600,207.200 165.267,207.200 163.609 C 207.200 161.710,206.014 161.200,201.600 161.200 C 198.788 161.200,197.543 161.365,196.889 161.823 M185.509 170.851 L 185.617 178.302 184.709 178.546 C 182.561 179.121,171.278 178.821,170.629 178.171 C 169.811 177.354,169.687 164.473,170.489 163.671 C 170.846 163.314,172.917 163.212,178.189 163.291 L 185.400 163.400 185.509 170.851 M116.878 172.661 C 109.644 179.550,109.690 178.218,116.449 185.036 C 119.592 188.206,122.427 190.800,122.749 190.800 C 123.481 190.800,133.908 180.520,134.241 179.469 C 134.519 178.594,123.923 167.600,122.802 167.600 C 122.467 167.600,119.801 169.878,116.878 172.661 M273.095 173.105 C 270.073 176.133,267.600 178.790,267.600 179.010 C 267.600 179.532,278.887 190.800,279.410 190.800 C 279.909 190.800,291.200 179.525,291.200 179.027 C 291.200 178.241,280.223 167.600,279.413 167.600 C 278.887 167.600,276.601 169.592,273.095 173.105 M196.608 172.156 C 195.439 173.325,195.661 174.691,197.110 175.242 C 199.297 176.073,235.992 175.499,236.632 174.624 C 237.402 173.571,237.347 172.947,236.400 172.000 C 235.622 171.222,235.067 171.200,216.582 171.200 L 197.564 171.200 196.608 172.156 M103.532 185.882 C 100.489 188.896,98.000 191.644,98.000 191.987 C 98.000 192.330,100.598 195.203,103.772 198.372 L 109.545 204.135 112.672 201.309 C 117.481 196.966,121.200 192.958,121.200 192.120 C 121.200 191.263,110.448 180.400,109.600 180.400 C 109.305 180.400,106.575 182.867,103.532 185.882 M286.332 185.882 C 283.289 188.896,280.800 191.644,280.800 191.987 C 280.800 192.330,283.403 195.209,286.585 198.385 L 292.371 204.160 297.276 199.380 C 302.973 193.830,304.000 192.690,304.000 191.924 C 304.000 191.210,293.118 180.400,292.400 180.400 C 292.105 180.400,289.375 182.867,286.332 185.882 M168.503 191.612 C 166.298 192.498,166.003 193.856,166.001 203.120 C 165.999 215.630,165.572 215.200,178.000 215.200 C 189.003 215.200,190.199 214.608,189.919 209.296 C 189.699 205.108,186.308 204.929,185.636 209.069 L 185.387 210.600 178.246 210.709 C 169.248 210.847,169.999 211.526,170.006 203.251 C 170.014 194.786,169.193 195.560,178.024 195.691 C 186.889 195.822,187.032 195.929,183.351 199.649 C 180.594 202.435,180.238 202.487,178.200 200.400 C 175.964 198.111,173.600 198.291,173.600 200.751 C 173.600 202.127,179.061 207.600,180.433 207.600 C 182.091 207.600,194.907 194.488,194.733 192.970 C 194.523 191.142,192.849 190.763,191.049 192.135 L 189.645 193.206 188.167 192.203 C 186.598 191.139,170.856 190.665,168.503 191.612 M116.400 199.400 L 110.610 205.200 116.400 211.000 C 119.584 214.190,122.448 216.800,122.763 216.800 C 123.546 216.800,134.400 205.993,134.400 205.213 C 134.400 204.414,123.588 193.600,122.790 193.600 C 122.460 193.600,119.584 196.210,116.400 199.400 M273.082 199.132 C 270.067 202.175,267.598 204.920,267.595 205.232 C 267.589 205.913,278.627 216.800,279.324 216.800 C 279.881 216.800,291.200 205.579,291.200 205.027 C 291.200 204.230,280.223 193.600,279.400 193.600 C 278.855 193.600,276.649 195.532,273.082 199.132 M197.030 196.358 C 195.414 196.991,195.447 199.410,197.081 200.031 C 197.615 200.234,203.710 200.400,210.626 200.400 C 224.122 200.400,224.800 200.295,224.800 198.200 C 224.800 196.098,224.141 195.998,210.500 196.028 C 203.515 196.044,197.453 196.192,197.030 196.358 M196.732 206.500 C 195.598 207.414,195.550 208.386,196.586 209.422 L 197.564 210.400 216.328 210.400 C 234.705 210.400,235.114 210.383,236.146 209.571 C 237.408 208.579,237.472 207.872,236.400 206.800 C 235.404 205.804,197.948 205.521,196.732 206.500 M103.695 212.105 C 100.563 215.243,98.000 217.990,98.000 218.210 C 98.000 218.709,109.275 230.000,109.773 230.000 C 110.570 230.000,121.200 219.023,121.200 218.200 C 121.200 217.371,110.566 206.400,109.763 206.400 C 109.558 206.400,106.827 208.967,103.695 212.105 M286.500 212.033 C 283.365 215.127,280.800 217.873,280.800 218.134 C 280.800 218.684,292.027 230.000,292.573 230.000 C 293.370 230.000,304.000 219.023,304.000 218.200 C 304.000 217.372,293.362 206.396,292.568 206.404 C 292.366 206.406,289.635 208.939,286.500 212.033 M116.400 225.400 L 110.610 231.200 116.400 237.000 C 119.584 240.190,122.464 242.800,122.800 242.800 C 123.590 242.800,134.400 231.980,134.400 231.189 C 134.400 230.407,123.574 219.600,122.790 219.600 C 122.460 219.600,119.584 222.210,116.400 225.400 M273.156 225.104 C 270.100 228.131,267.600 230.862,267.600 231.172 C 267.600 231.997,278.438 242.800,279.266 242.800 C 279.980 242.800,290.128 233.227,290.876 231.847 C 291.315 231.038,280.467 219.600,279.261 219.600 C 278.959 219.600,276.211 222.077,273.156 225.104 M166.662 224.331 C 165.517 225.597,165.677 245.584,166.841 246.638 C 168.225 247.892,187.354 248.023,188.922 246.790 L 190.000 245.942 190.000 235.433 C 190.000 225.760,189.942 224.871,189.269 224.262 C 188.099 223.204,167.626 223.267,166.662 224.331 M185.400 235.400 L 185.400 243.000 178.202 243.110 C 169.273 243.246,170.000 243.946,170.000 235.204 C 170.000 226.866,169.247 227.557,178.189 227.691 L 185.400 227.800 185.400 235.400 M196.490 228.870 C 195.830 229.530,195.869 231.393,196.554 231.962 C 197.625 232.851,208.797 232.360,209.437 231.396 C 209.867 230.748,209.874 230.400,209.474 229.596 C 208.894 228.432,197.561 227.799,196.490 228.870 M103.695 238.105 C 100.563 241.243,98.000 244.088,98.000 244.428 C 98.000 245.129,108.968 256.000,109.676 256.000 C 110.487 256.000,121.200 245.088,121.200 244.262 C 121.200 243.516,110.444 232.400,109.722 232.400 C 109.539 232.400,106.827 234.967,103.695 238.105 M196.163 239.400 C 195.556 240.326,195.556 240.474,196.163 241.400 L 196.818 242.400 216.347 242.400 C 237.421 242.400,237.200 242.422,237.200 240.330 C 237.200 238.414,237.050 238.400,216.278 238.400 L 196.818 238.400 196.163 239.400 M116.482 251.331 C 113.357 254.483,110.800 257.206,110.800 257.383 C 110.800 257.971,122.182 268.800,122.801 268.800 C 123.923 268.800,134.519 257.806,134.241 256.931 C 133.908 255.880,123.481 245.600,122.749 245.600 C 122.427 245.600,119.607 248.179,116.482 251.331 M273.295 251.305 C 270.163 254.443,267.600 257.173,267.600 257.373 C 267.600 258.170,278.577 268.800,279.400 268.800 C 280.229 268.800,291.200 258.166,291.200 257.363 C 291.200 256.859,279.896 245.600,279.390 245.600 C 279.170 245.600,276.427 248.167,273.295 251.305 M181.895 290.305 C 178.873 293.333,176.400 296.080,176.400 296.411 C 176.400 297.193,187.226 308.000,188.011 308.000 C 188.793 308.000,199.600 297.174,199.600 296.389 C 199.600 295.607,188.774 284.800,187.989 284.800 C 187.659 284.800,184.917 287.277,181.895 290.305 M207.895 290.305 C 204.873 293.333,202.400 296.086,202.400 296.424 C 202.400 297.196,213.261 308.000,214.037 308.000 C 214.802 308.000,225.600 297.157,225.600 296.389 C 225.600 295.607,214.774 284.800,213.989 284.800 C 213.659 284.800,210.917 287.277,207.895 290.305 M125.648 299.829 C 128.498 301.560,128.501 301.610,126.000 305.600 C 123.377 309.786,123.384 309.827,127.175 312.135 C 131.118 314.537,131.124 314.535,133.710 310.402 C 134.879 308.533,136.105 306.952,136.435 306.889 C 137.317 306.719,142.112 309.932,141.879 310.537 C 141.051 312.697,129.036 331.200,128.462 331.200 C 127.544 331.200,123.200 328.460,123.200 327.881 C 123.200 327.630,124.113 325.934,125.230 324.114 C 127.736 320.026,127.716 319.929,123.861 317.512 C 120.079 315.142,120.177 315.113,117.423 319.382 C 114.898 323.295,114.942 323.280,111.887 321.369 C 108.970 319.544,108.967 319.571,112.830 313.378 C 114.607 310.530,117.414 305.995,119.068 303.300 C 122.444 297.800,122.371 297.838,125.648 299.829 M282.193 307.567 C 291.129 311.966,291.893 324.431,283.572 330.077 C 276.125 335.131,266.582 332.768,263.167 325.024 C 258.122 313.586,270.797 301.956,282.193 307.567 M272.096 313.598 C 265.908 317.371,270.474 327.919,277.480 326.032 C 283.180 324.497,283.983 317.181,278.831 313.710 C 277.068 312.522,273.947 312.470,272.096 313.598 M166.018 318.064 C 172.455 321.014,175.348 328.166,172.819 334.875 C 169.130 344.658,155.042 346.214,149.100 337.494 C 147.541 335.206,147.660 334.505,149.764 333.575 C 153.098 332.100,153.769 332.131,154.805 333.809 C 157.323 337.882,163.185 337.568,165.470 333.237 C 168.506 327.483,163.760 321.448,158.009 323.750 C 155.769 324.646,155.829 324.669,153.938 322.164 C 151.922 319.494,152.056 319.030,155.238 317.688 C 158.210 316.435,162.813 316.596,166.018 318.064 M250.217 318.100 C 250.603 319.106,245.336 344.111,244.629 344.628 C 243.402 345.526,238.810 346.186,238.206 345.552 C 236.641 343.910,223.161 323.877,223.329 323.442 C 223.532 322.912,227.267 322.000,229.234 322.000 C 230.054 322.000,230.549 322.346,231.172 323.355 C 232.610 325.682,232.782 325.735,236.478 325.006 C 241.635 323.988,242.367 323.686,242.642 322.469 C 243.475 318.776,243.252 319.049,246.022 318.339 C 249.247 317.513,249.976 317.471,250.217 318.100 M203.280 323.649 C 210.767 325.233,212.250 328.166,211.841 340.580 C 211.520 350.323,211.818 349.669,207.762 349.518 L 204.600 349.400 204.600 340.747 C 204.600 331.044,204.535 330.806,201.653 330.010 C 197.409 328.839,195.788 330.852,195.433 337.737 C 195.295 340.412,195.078 343.995,194.950 345.700 L 194.717 348.800 191.401 348.800 C 188.983 348.800,188.029 348.654,187.878 348.259 C 187.447 347.137,188.406 332.606,189.042 330.608 C 190.870 324.867,196.360 322.184,203.280 323.649 M237.300 330.412 C 236.130 330.883,236.139 330.931,237.900 333.665 C 240.050 337.002,240.413 336.820,241.029 332.100 L 241.303 330.000 239.752 330.025 C 238.898 330.039,237.795 330.213,237.300 330.412 " stroke="none" fill="#040404" fill-rule="evenodd"></path></g></svg>